<?xml version="1.0" encoding="UTF-8" standalone="yes"?>
<!-- Created with sK1/UniConvertor (http://sk1project.org/) -->
<svg xmlns="http://www.w3.org/2000/svg" xmlns:xlink="http://www.w3.org/1999/xlink"
  width="595.276pt" height="841.89pt" viewBox="0 0 595.276 841.89"
  fill-rule="evenodd">
<g>
<path style="stroke:none; fill:#737476" d="M 437.721 450.862C 429.873 450.862 419.636 475.06 414.86 504.904C 414.186 509.112 413.662 513.202 413.271 517.134C 413.616 514.03 414.045 510.836 414.569 507.567C 419.168 478.83 429.022 455.532 436.579 455.532C 444.138 455.532 446.532 478.83 441.926 507.567C 438.373 529.787 431.674 548.742 425.326 556.205C 432.124 549.074 439.449 528.809 443.274 504.904C 448.057 475.06 445.568 450.862 437.721 450.862zM 550.285 332.61C 547.956 332.61 545.293 346.639 544.338 363.942C 544.09 368.426 543.985 372.681 544.001 376.537C 544.008 373.16 544.107 369.491 544.32 365.639C 545.223 349.273 547.741 336.003 549.943 336.003C 552.148 336.003 553.208 349.273 552.303 365.639C 551.411 381.814 548.94 394.939 546.756 395.248C 546.782 395.25 546.806 395.275 546.832 395.275C 549.161 395.275 551.824 381.247 552.779 363.942C 553.734 346.639 552.616 332.61 550.285 332.61zM 440.374 504.904C 443.698 484.153 442.606 466.834 438.114 462.789C 441.741 468.108 442.446 484.01 439.436 502.797C 435.733 525.947 427.797 544.713 421.71 544.713C 418.92 544.713 417.018 540.74 416.117 534.242C 416.835 542.641 418.92 547.92 422.182 547.92C 428.427 547.92 436.575 528.66 440.374 504.904zM 436.32 468.703C 436.971 468.703 437.566 468.958 438.107 469.412C 437.288 467.976 436.294 467.151 435.113 467.151C 429.63 467.151 422.478 484.056 419.145 504.904C 416.2 523.281 417.202 538.574 421.234 541.951C 418.246 536.711 417.73 522.82 420.351 506.457C 423.685 485.608 430.836 468.703 436.32 468.703zM 547.449 384.07C 547.55 384.07 547.652 384.023 547.754 383.943C 546.651 382.942 546.153 375.646 546.643 366.782C 547.169 357.235 548.639 349.495 549.924 349.495C 550.801 349.495 551.363 353.084 551.471 358.383C 551.607 349.975 550.905 343.816 549.668 343.816C 548.172 343.816 546.46 352.828 545.847 363.942C 545.233 375.059 545.951 384.07 547.449 384.07zM 369.81 573.901C 363.247 579.559 356.839 581.124 352.161 582.285C 343.599 584.412 322.052 587.237 310.727 590.716C 299.402 594.197 284.004 597.12 273.986 599.194C 264.349 601.193 258.498 602.419 238.839 601.784C 219.181 601.148 218.294 600.106 211.052 595.598C 206.594 592.823 196.567 592.058 187.107 591.077C 177.647 590.097 149.565 586.274 128.873 580.603C 108.18 574.93 86.5981 561.86 83.6421 559.318C 80.686 556.775 78.3213 557.196 75.5127 557.168C 72.7046 557.14 70.4873 555.494 67.5313 552.36C 65.9995 550.736 64.3892 548.633 62.8418 546.489C -0.8726 602.86 127.731 669 253.394 649.157C 293.033 644.497 360.092 611.685 406.734 585.089C 402.771 585.022 398.669 584.258 394.481 583.436C 386.418 581.856 375.243 577.432 369.81 573.901zM 276.001 467.449C 265.61 471.13 237.989 486.078 228.904 501.673C 222.79 512.169 224.681 519.717 244.048 511.972C 257.678 506.521 274.637 492.134 281.302 481.985C 287.437 472.642 295.231 460.636 276.001 467.449zM 277.829 483.34C 272.016 492.191 257.225 504.737 245.338 509.492C 240.054 511.607 236.261 512.413 233.708 512.245C 236.163 512.365 239.755 511.589 244.738 509.597C 251.295 506.975 258.763 501.886 265.003 496.417C 264.769 496.525 264.535 496.633 264.281 496.667C 262.353 496.926 260.396 494.972 259.123 491.893C 256.98 485.58 263.103 485.336 264.865 486.536C 265.141 487.53 265.648 488.237 266.116 488.154C 266.184 488.142 266.233 488.071 266.291 488.03C 267.696 488.989 268.113 490.59 267.388 493.321C 267.148 493.986 266.855 494.575 266.516 495.067C 270.505 491.412 273.879 487.665 276.003 484.432C 281.152 476.588 287.693 466.514 271.554 472.231C 269.27 473.039 265.982 474.512 262.253 476.458C 263.76 476.655 265.469 477.995 266.328 480.342C 267.348 483.179 266.791 484.014 266.089 484.138C 265.848 483.795 265.575 483.592 265.317 483.638C 265.312 483.638 265.31 483.645 265.305 483.647C 264.425 481.126 261.503 479.387 258.228 480.502C 258.497 479.548 258.853 478.713 259.298 478.056C 249.244 483.655 237.142 492.175 232.028 500.955C 230.441 503.678 229.502 506.161 229.435 508.106C 229.455 506.062 230.436 503.419 232.13 500.512C 240.054 486.908 264.144 473.872 273.206 470.66C 289.977 464.72 283.18 475.191 277.829 483.34zM 583.326 357.957C 572.08 356.047 562.614 354.331 555.747 353.195C 556.18 337.655 555.536 324.478 553.306 317.261C 554.667 320.266 556.071 323.785 556.519 330.418C 557.516 328.565 558.973 323.168 559.074 320.072C 559.131 318.351 558.95 316.116 558.753 314.272C 558.948 313.352 559.347 309.742 555.291 304.167C 550.562 297.663 548.346 287.465 546.275 282.292C 544.286 277.318 538.61 263.194 491.55 256.333C 494.572 260.616 497.078 266.601 500.278 274.116C 493.32 263.4 487.754 257.416 481.557 253.117C 472.154 247.842 455.495 240.028 440.16 238.121C 418.483 235.214 396.619 234.105 374.828 234.653C 361.742 234.831 348.602 235.024 335.544 236.416C 322.745 236.66 308.615 241.468 302.046 253.449C 291.73 253.782 281.435 254.569 271.182 256.038C 267.042 256.63 257.45 257.908 249.301 262.066C 236.241 268.73 225.36 279.406 216.263 290.65C 213.039 294.451 209.776 298.262 206.551 302.119L 206.568 302.062C 202.673 301.264 198.795 300.512 194.845 300.089C 194.231 300.024 192.388 299.574 191.068 297.645C 189.244 295.002 182.753 290.401 175.639 295.073C 172.761 297.884 174.255 302.957 174.431 304.364C 175.016 307.21 175.548 309.935 177.534 312.241C 180.986 314.748 184.612 315.426 188.59 314.671C 189.876 314.59 190.477 315.714 190.749 316.399C 191.291 317.763 191.757 319.184 192.222 320.576C 190.911 322.452 189.626 324.347 188.397 326.28C 184.948 326.863 182.472 328.487 180.359 330.427C 179.514 331.203 176.105 332.203 175.268 332.281C 149.749 334.66 122.76 337.329 98.6743 348.192C 78.3198 357.633 57.147 370.876 46.0244 390.936C 42.4214 398.463 38.9185 412.643 37.9463 417.205C 36.7383 422.874 35.8545 428.106 35.2422 433.036C 36.1479 447.607 40.1807 465.235 47.8359 455.107C 46.6899 457.149 44.2339 460.371 40.7871 458.978C 37.606 457.166 35.5381 449.292 34.4912 440.922C 34.4028 442.192 34.314 443.462 34.2617 444.699C 34.2573 444.797 34.2554 444.895 34.252 444.993C 34.1909 446.522 34.1606 448.028 34.1519 449.519C 34.1519 449.698 34.1484 449.881 34.1484 450.062C 34.1465 453.176 34.2573 456.216 34.4619 459.225C 34.4844 459.563 34.5117 459.897 34.5381 460.234C 34.6235 461.373 34.7227 462.511 34.8345 463.646C 34.874 464.037 34.9097 464.431 34.9521 464.822C 35.103 466.253 35.2686 467.682 35.4575 469.114C 37.9702 488.181 38.8584 499.12 54.3779 525.873C 56.7427 533.854 56.2988 536.958 58.8115 540.505C 61.3242 544.052 64.5752 548.927 67.5313 552.032C 70.4873 555.137 72.7046 556.762 75.5127 556.762C 78.3213 556.762 80.686 556.318 83.6421 558.832C 86.5981 561.346 108.18 574.203 128.873 579.672C 149.565 585.141 177.647 588.688 187.107 589.574C 196.567 590.462 206.594 591.129 211.052 593.86C 218.294 598.296 219.181 599.329 238.839 599.773C 258.498 600.217 264.349 598.932 273.986 596.84C 284.004 594.665 299.402 591.593 310.727 588C 322.052 584.408 343.599 581.372 352.161 579.161C 360.357 577.043 373.862 573.647 384.207 549.149C 388.935 539.494 394.142 525.836 396.256 515.918C 398.224 514.705 399.647 509.843 400.833 504.837C 400.833 504.837 416.206 462.566 417.98 457.836C 418.45 456.287 420.771 456.379 420.107 458.031C 418.379 462.761 403.407 505.032 403.407 505.032C 402.131 510.65 400.559 516.118 398.195 516.414C 397.912 517.597 398.782 518.112 388.549 545.737C 383.526 559.304 377.514 567.065 371.682 571.72C 377.542 574.953 387.264 578.554 394.481 579.896C 401.305 581.166 407.902 582.308 414.038 580.498C 414.171 580.507 414.297 580.533 414.43 580.533C 426.574 580.533 442.17 546.601 449.25 504.739C 451.613 490.79 452.731 477.721 452.725 466.492C 452.725 465.066 453.111 461.187 453.207 460.604C 454.525 452.519 455.034 444.401 455.086 436.282C 455.19 419.826 448.602 409.988 435.558 421.809C 426.283 431.105 422.439 440.05 415.741 454.241C 420.932 438.863 427.605 421.624 440.256 411.417C 451.268 402.532 455.919 414.418 457.387 424.349C 457.75 426.81 458.952 447.615 455.699 462.18C 460.079 457.014 467.604 451.253 477.69 444.884C 497.069 432.647 513.915 422.944 525.622 419.834C 516.261 418.101 508.089 411.163 505.234 405.868C 508.796 403.702 511.942 402.019 513.908 401.423C 518.785 399.944 528.391 400.536 531.791 390.485C 535.192 380.435 540.067 356.635 543.024 342.446C 544.244 336.594 546.387 326.708 548.807 318.919C 546.752 326.996 545.352 337.421 544.146 343.194C 541.19 357.383 536.315 381.183 532.913 391.233C 529.513 401.284 519.907 400.692 515.03 402.171C 513.308 402.693 510.677 404.052 507.659 405.835C 510.701 409.699 515.748 413.554 520.69 414.316C 524.915 414.965 534.94 416.336 540.909 415.964C 542.144 415.888 545.607 415.338 546.119 414.709C 549.874 410.084 553.756 389.265 555.263 364.28C 555.35 362.825 555.426 361.387 555.495 359.962C 555.488 363.03 555.456 366.183 555.263 369.4C 554.575 380.769 553.396 391.266 551.962 399.764C 559.299 390.116 602.767 361.259 583.326 357.957zM 444.592 504.904C 439.373 537.52 428.188 563.959 419.614 563.959C 411.038 563.959 408.319 537.52 413.543 504.904C 418.762 472.294 429.947 445.854 438.523 445.854C 447.098 445.854 449.815 472.294 444.592 504.904zM 440.624 427.247C 446.782 427.247 451.257 433.232 452.87 447.287C 452.753 448.564 452.355 453.002 452.207 454.274C 450.809 438.741 446.612 428.954 440.093 428.954C 434.551 428.954 427.599 435.741 422.449 447.733C 428.377 433.927 434.874 427.247 440.624 427.247zM 509.642 296.073C 516.067 294.854 522.065 296.276 520.265 303.643C 519.29 307.626 518.262 311.123 517.065 314.437C 515.065 312.908 510.168 312.787 509.053 312.688C 504.414 312.275 499.533 312.002 494.853 312.461C 488.13 313.45 491.876 309.635 491.876 309.635L 498.693 302.039C 498.693 302.039 503.373 297.264 509.642 296.073zM 518.485 319.169C 518.142 321.655 517.281 324.035 516.104 325.708C 509.585 330.053 497.137 329.754 486.088 327.065C 483.196 326.351 480.267 325.586 477.253 325.434C 477.49 322.629 478.09 319.801 479.153 318.553C 479.816 318.559 480.469 318.537 481.137 318.549C 490.08 311.929 499.477 312.949 509.742 313.517C 512.038 313.639 515.711 314.524 516.859 315.465C 521.323 319.129 520.318 327.839 517.276 332.01C 513.747 334.25 507.094 335.652 499.326 335.355C 492.4 335.088 483.604 332.256 477.32 331.071C 477.32 331.07 477.32 331.068 477.32 331.067C 480.391 331.199 483.372 331.986 486.315 332.713C 497.365 335.402 509.811 335.701 516.331 331.356C 518.412 328.399 519.512 323.233 518.485 319.169zM 335.685 237.844C 348.689 236.614 361.753 236.579 374.835 236.556C 396.478 236.263 418.133 237.625 439.482 240.73C 457.417 244.651 469.022 250.278 474.608 256.487C 487.784 271.131 492.709 290.586 495.203 298.118L 476.12 317.201C 474.144 317.185 472.149 317.196 470.145 317.242L 473.821 311.004L 474.023 310.661L 473.963 310.269C 473.8 309.206 469.934 284.153 467.385 275.876C 463.13 262.042 449.156 254.692 420.669 251.3C 389.784 247.624 345.565 246.412 321.458 252.44L 321.684 253.342C 315.522 253.242 309.363 253.236 303.212 253.415C 309.964 242.229 323.008 238.023 335.685 237.844zM 472.972 331.3C 471.83 331.498 470.675 331.81 469.501 332.284C 465.676 334.223 462.306 336.593 459.131 339.39C 455.706 342.233 454.976 345.533 452.122 344.046C 452.122 344.045 452.122 344.044 452.122 344.044C 454.832 345.423 455.53 342.105 458.787 339.152C 461.81 336.249 465.02 333.768 468.659 331.702C 469.779 331.19 470.877 330.839 471.965 330.603C 471.602 329.56 471.432 328.313 471.386 326.998C 470.318 327.234 469.24 327.576 468.142 328.08C 464.502 330.146 451.925 336.98 451.331 330.699C 451.065 327.427 450.744 324.166 450.354 320.913C 456.169 319.795 462.006 319.139 467.929 318.809C 468.333 318.786 470.189 318.697 470.653 318.676C 471.775 318.627 472.899 318.587 474.032 318.564C 472.523 321.894 471.673 327.695 472.972 331.3zM 182.694 294.327C 186.617 294.171 191.785 299.761 191.824 299.83C 188.596 299.472 184.339 301.319 184.188 305.108C 184.124 306.704 184.648 309.209 182.329 308.944C 181.037 308.692 179.536 308.227 178.2 307.176C 177.268 306.445 175.785 302.854 175.386 300.126C 174.231 295.669 178.659 293.561 182.694 294.327zM 178.626 311.1C 177.757 310.152 177.138 308.998 176.677 307.733C 177.079 308.588 177.543 309.396 178.165 310.075C 179.849 311.447 184.055 312.335 187.194 312.173C 187.553 312.494 187.949 312.82 188.39 313.154C 185.213 313.513 180.442 312.58 178.626 311.1zM 188.355 305.916C 187.792 305.121 186.956 302.856 188.681 301.724C 189.999 300.858 191.638 300.747 192.815 300.969C 195.854 301.608 198.861 302.49 201.832 303.459C 202.775 303.767 204.482 304.905 202.244 307.39C 198.615 311.417 195.132 315.823 193.361 312.693C 192.784 311.673 190.156 308.461 188.355 305.916zM 217.235 291.464C 226.074 280.274 236.411 269.42 249.172 262.983C 256.088 259.556 265.522 258.265 268.742 257.796C 307.856 252.098 347.819 256.59 387.16 259.372C 407.13 261.517 433.161 264.61 440.124 285.465C 445.738 305.651 448.247 327.262 448.493 348.243C 445.256 348.842 442.016 349.416 438.773 349.978C 438.685 331.278 433.472 295.047 428.442 285.487C 423.219 275.554 412.258 269.546 392.829 266.342C 377.827 263.867 339.697 261.717 314.073 261.031C 313.602 261.018 270.644 258.736 249.129 267.296C 231.872 274.162 223.707 287.707 209.419 303.666C 223.151 289.377 235.343 275.669 250.799 269.337C 265.173 264.812 280.12 263.628 293.474 263.43C 293.892 263.424 291.256 269.981 288.331 276.944C 277.426 282.991 207.753 324.883 206.323 325.242C 197.581 327.442 190.497 330.353 186.572 334.18C 186.568 334.16 186.561 334.141 186.557 334.121L 185.857 334.214C 194.227 318.6 205.891 305.156 217.235 291.464zM 298.304 263.398C 301.818 263.4 305.195 263.453 308.389 263.511C 301.818 273.938 290.609 313.325 287.725 326.303C 287.539 322.777 287.563 318.714 286.426 318.696C 273.042 318.479 244.532 318.771 220.861 322.386C 217.86 322.844 276.859 285.63 288.014 277.697C 286.239 281.911 284.395 286.192 283.086 289.192C 287.461 281.413 297.384 263.397 298.304 263.398zM 330.974 338.568C 333.498 338.669 338.091 338.85 339.33 334.268C 340.858 328.618 343.849 323.297 348.848 319.11C 355.325 313.683 363.928 310.693 373.069 310.693C 382.211 310.693 390.815 313.683 397.295 319.11C 402.586 323.542 405.951 329.166 407.043 335.272C 401.142 317.719 381.689 312.921 373.069 312.921C 364.449 312.921 356.356 315.726 350.276 320.817C 346.065 324.346 343.19 328.682 341.844 333.401C 340.191 339.122 345.127 339.154 347.238 339.248C 371.036 340.3 397.439 341.719 412.956 343.271C 399.48 343.024 316.917 339.328 301.218 337.529C 307.278 337.695 318.12 338.059 330.974 338.568zM 313.527 361.645C 357.13 363.431 400.73 358.58 443.51 350.526C 389.238 365.438 337.345 365.615 303.04 361.625C 306.539 361.637 310.035 361.653 313.527 361.645zM 186.521 329.313C 185.609 330.835 182.811 334.621 182.811 334.621C 185.984 348.756 215.946 354.593 229.672 357.303C 216.728 355.897 182.418 350.553 178.932 333.361C 181.206 331.48 184 329.876 186.521 329.313zM 178.132 333.47C 178.124 333.48 178.115 333.493 178.108 333.503L 178.091 333.429L 178.132 333.47zM 167.98 352.822C 161.64 389.202 198.012 391.298 197.47 391.81C 196.137 393.068 194.788 394.367 193.421 395.709C 192.981 396.139 184.864 404.954 180.677 409.07C 186.496 401.903 190.71 396.648 189.9 396.437C 181.292 394.186 156.745 384.774 167.98 352.822zM 67.8203 423.311C 69.3853 421.041 81.2695 413.828 79.4995 427.512C 87.394 416.401 99.2007 402.376 125.231 382.511C 87.3516 417.603 79.1636 446.6 73.8418 455.094C 76.1758 449.381 77.7925 443.884 78.6841 438.831C 80.6162 427.88 70.9614 425.203 64.9043 435.197C 60.7231 442.097 57.4473 449.499 55.3608 460.639C 52.9775 458.531 50.7324 456.307 48.6309 453.974C 57.5068 439.703 68.875 414.52 73.2329 397.189C 75.8247 386.879 78.4199 370.592 69.9404 366.707C 82.417 372.035 83.292 401.862 67.8203 423.311zM 70.4048 449.686C 68.6489 449.686 67.2256 446.696 67.2256 443.008C 67.2256 441.355 67.5225 439.861 67.9966 438.696C 65.5034 441.055 62.5298 446.128 60.124 452.441C 60.1455 452.38 60.1631 452.321 60.1846 452.263C 64.0933 441.377 69.6816 433.442 72.6641 434.547C 75.6484 435.66 74.9019 445.384 70.9941 456.273C 67.0811 467.162 61.4961 475.092 58.5127 473.983C 58.4409 473.957 58.3823 473.902 58.3149 473.866C 61.1211 474.453 66.1094 467.26 69.6362 457.444C 70.7573 454.321 71.5942 451.306 72.1382 448.596C 71.6387 449.279 71.0454 449.686 70.4048 449.686zM 47.7661 405.154C 47.7661 400.606 50.0005 396.833 52.9492 396.026C 52.9502 396.026 52.9502 396.026 52.9502 396.026C 53.3311 395.924 53.7202 395.854 54.1201 395.854C 57.6299 395.854 60.4741 400.018 60.4741 405.154C 60.4741 405.885 60.397 406.583 60.2861 407.261C 60.2588 407.427 60.2349 407.588 60.2031 407.749C 60.0771 408.366 59.9141 408.96 59.7075 409.516C 59.6479 409.682 59.5771 409.83 59.5107 409.986C 59.4282 410.182 59.3555 410.386 59.2642 410.573C 59.291 410.504 59.3008 410.421 59.3257 410.349C 58.8354 411.391 58.2388 412.319 57.5059 412.998C 57.1255 413.1 56.7363 413.17 56.3359 413.17C 52.8262 413.17 49.981 409.005 49.9819 403.871C 49.9819 402.325 50.2617 400.89 50.7192 399.611C 50.019 401.099 49.5732 402.858 49.5732 404.804C 49.5723 409.873 52.3491 413.981 55.7979 414.083C 55.2598 414.3 54.7051 414.452 54.1201 414.452C 50.6104 414.452 47.7651 410.288 47.7661 405.154zM 45.7124 507.196C 41.23 497.359 37.3701 476.441 41.23 480.052C 41.9683 480.744 42.9399 481.548 44.0264 482.397C 43.7773 483.462 43.6445 484.364 44.5522 485.032C 45.7148 485.887 47.189 487.824 47.2661 488.676C 47.3433 489.528 45.5615 492.32 45.793 493.405C 46.0244 494.491 47.0337 495.576 48.0415 496.507C 49.0493 497.438 51.9185 500.692 52.3057 501.469C 52.6924 502.245 52.6914 503.798 51.9946 505.037C 51.2979 506.276 51.2964 508.214 52.2271 509.145C 53.0425 509.96 56.001 513.037 57.3984 514.464C 57.6113 515.037 57.8242 515.609 58.0386 516.164C 62.2725 527.121 68.374 536.832 76.0942 548.785C 65.8843 541.064 50.1953 517.033 45.7124 507.196zM 450.872 407.698C 449.161 406.979 447.108 406.844 444.638 407.527C 438.641 409.184 434.098 415.237 430.656 419.995C 423.878 429.365 419.242 440.342 415.365 451.304C 414.469 453.839 411.099 463.743 409.044 469.695C 406.628 476.687 403.655 485.325 402.097 490C 398.974 499.364 395.853 508.403 395.072 511.524C 394.54 513.656 394.446 515.109 395.201 515.892C 393.22 523.072 390.126 530.764 387.171 538.03C 383.691 547.383 378.427 553.593 375.23 554.192C 365.226 556.064 370.177 523.794 362.047 521.8C 349.761 518.788 293.435 575.347 292.814 555.913C 290.297 559.121 283.35 570.05 256.248 574.033C 267.153 571.442 276.921 567.85 283.378 563.037C 298.621 551.678 305.856 532.769 288.359 531.746C 272.779 530.835 240.72 530.211 230.248 530.085C 251.576 532.257 266.392 533.023 266.392 533.023L 266.264 534.684L 259.878 538.259L 265.503 538.461L 290.835 538.401C 290.835 538.401 267.095 539.122 267.159 539.89C 267.222 540.655 267.286 541.581 267.286 542.219C 267.286 543.495 266.904 545.539 265.243 546.433C 263.582 547.326 257.579 549.753 257.579 549.753L 264.99 549.973L 288.286 549.749L 265.644 551.721L 264.093 556.012L 250.3 560.483C 250.3 560.483 262.689 561.247 266.392 561.247C 270.095 561.247 279.674 557.161 283.505 554.735C 279.329 558.446 270.018 565.866 248.679 572.438C 242.129 574.453 225.465 578.7 211.624 578.569C 197.957 578.442 189.72 577.258 185.554 576.323C 184.23 576.026 184.956 574.941 186.89 573.401C 183.498 573.895 179.884 574.242 175.98 574.358C 160.065 574.825 141.055 571.607 124.397 566.306C 108.672 561.3 95.0918 554.383 86.6396 548.818C 69.2329 537.36 59.6099 509.173 57.3276 501.364C 56.7817 499.496 56.5557 498.111 56.6123 497.111C 56.8428 492.947 62.0688 495.509 70.7378 499.308C 70.2441 499.092 69.7744 498.883 69.3022 498.677C 68.5815 499.255 66.1191 502.497 70.0156 504.607C 71.7485 505.546 73.6841 506.518 75.7358 507.507C 72.9971 509.483 67.5313 514.161 75.8105 518.228C 83.3887 521.95 94.5015 527.956 112.066 533.49C 112.024 534.132 111.99 534.682 111.976 535.206C 102.837 531.914 94.1079 528.174 85.8555 523.929C 82.958 524.103 81.1738 525.801 81.0034 527.848C 80.7544 530.826 82.1113 532.775 93.4326 537.468C 99.271 539.888 105.492 542.191 112.027 544.358C 112.004 545.491 112.035 546.828 112.959 547.168C 114.216 547.631 116.399 546.195 116.426 545.784C 119.393 546.72 122.422 547.624 125.516 548.496C 125.701 550.203 125.609 551.43 126.328 551.919C 128.251 553.226 131.183 550.986 131.204 550.038C 134.195 550.823 137.238 551.58 140.337 552.3C 140.488 553.896 140.684 555.539 141.489 555.97C 142.481 556.501 145.921 555.307 145.702 553.509C 149.195 554.261 152.768 554.961 156.385 555.624C 156.54 557.216 156.958 559.125 157.84 559.347C 158.9 559.612 160.29 558.686 161.084 558.155C 161.653 557.775 161.807 557.127 161.804 556.544C 165.745 557.207 169.751 557.812 173.826 558.359C 173.881 559.669 174.114 561.295 175.978 560.869C 178.295 560.339 178.031 559.941 178.295 559.875C 178.422 559.843 178.472 559.425 178.482 558.964C 183.753 559.606 189.09 560.187 194.562 560.619C 198.891 560.963 203.413 558.919 206.395 556.875C 208.601 555.363 206.408 554.389 203.927 554.15C 201.39 553.906 198.866 553.646 196.352 553.369C 196.305 552.195 196.251 550.756 196.201 549.421C 209.55 550.132 217.689 548.562 220.101 547.174C 220.196 547.12 220.269 547.069 220.36 547.016C 218.92 552.123 215.595 556.982 210.962 559.288C 199.105 567.534 184.088 570.509 169.564 570.566C 140.276 570.697 110.835 562.568 85.4546 547.659C 110.573 563.041 139.926 571.794 169.576 572.216C 184.321 572.404 199.688 569.772 212.393 561.311C 218.932 557.305 223.554 549.988 224.152 542.171C 224.963 538.548 223.709 535.65 221.43 533.527C 219.372 531.051 215.858 529.28 210.204 528.935C 201.115 528.378 184.564 527.575 163.893 524.693C 138.166 520.765 199.018 507.494 171.706 506.385C 108.663 500.54 71.7173 478.791 66.4888 474.031C 64.646 476.871 60.2959 481.925 55.876 480.069C 53.123 478.915 52.5503 470.452 54.564 465.54C 54.5303 465.779 54.481 465.996 54.4551 466.24C 53.7505 472.805 55.415 486.536 64.1465 473.358C 64.8154 472.348 65.4263 471.341 66.0483 470.332C 76.7578 477.371 88.6899 482.859 100.069 487.567C 129.333 499.67 161.102 505.52 192.735 505.713C 184.79 505.276 176.438 504.564 167.754 503.439C 127.924 496.113 116.345 438.03 127.807 399.827C 128.534 397.402 131.197 391.962 133.013 399.57C 132.432 382.147 142.015 367.772 150.967 359.347C 147.713 363.841 143.115 373.429 141.617 378.618C 142.499 374.784 144.402 368.911 147.327 363.87C 137.551 379.038 135.049 389.283 136.399 396.228C 140.231 410.349 165.172 415.174 173.747 416.892C 168.609 422.896 163.259 429.498 157.669 436.815C 187.956 400.76 211.319 380.466 231.155 367.08C 239.948 361.611 246.827 363.073 247.993 363.213C 254.646 364.01 261.079 363.17 267.441 362.493C 269.609 362.263 277.358 362.008 269.34 365.566C 226.557 384.684 190.18 421.113 177.43 440.759C 189.783 428.267 196.264 423.501 200.929 421.026C 269.997 427.778 325.02 404.671 353.364 390.498C 317.987 405.313 267.796 406.335 235.355 403.525C 232.42 401.356 227.183 396.246 223.477 399.566C 220.154 402.541 212.042 409.56 207.42 413.685C 205.645 415.268 219.209 401.664 223.851 397.507C 227.557 394.186 235.984 401.484 236.107 401.495C 239.193 389.652 249.669 380.048 260.113 372.903C 254.831 377.871 243.609 390.899 244.121 395.33C 244.912 402.18 330.591 398.316 396.701 371.657C 328.673 412.406 320.731 431.024 300.313 463.837C 296.836 468.317 293.911 472.402 291.602 475.777C 275.852 498.794 278.386 514.933 308.413 503.484C 337.788 492.283 366.604 470.365 384.883 445.945C 404.267 420.049 400.935 402.182 385.34 404.904C 361.614 409.045 341.272 422.209 325.239 436.728C 361.962 399.275 392.594 401.279 394.786 402.973C 410.009 388.828 443.44 361.529 469.565 346.584C 465.436 347.072 454.447 347.59 460.912 341.289C 463.791 338.64 467.109 336.232 470.503 334.431C 477.285 331.165 485.803 335.692 493.816 336.14C 497.376 336.485 504.151 337.791 501.311 341.718C 490.141 357.166 472.263 365.47 462.01 374.867C 452.044 384.001 450.507 398.122 450.872 407.698zM 116.079 534.712C 118.968 535.561 122.02 536.391 125.245 537.197C 125.19 538.011 125.15 538.792 125.123 539.542C 122.089 538.624 119.103 537.651 116.148 536.644C 116.124 536.015 116.102 535.367 116.079 534.712zM 130.02 538.355C 133.393 539.146 136.574 539.879 139.52 540.544C 139.572 541.575 139.636 542.608 139.706 543.563C 136.538 542.771 133.413 541.927 130.316 541.051C 130.186 540.233 130.086 539.326 130.02 538.355zM 144.207 541.586C 148.601 542.549 152.515 543.362 156.127 544.071C 156.073 545.204 156.027 546.229 155.995 547.196C 152.133 546.417 148.303 545.605 144.531 544.719C 144.394 543.815 144.26 542.747 144.207 541.586zM 161.025 545.002C 165.136 545.752 168.859 546.357 172.449 546.874C 172.448 548.04 172.471 549.17 172.532 550.175C 168.672 549.56 164.855 548.892 161.071 548.184C 161.059 547.142 161.048 546.052 161.025 545.002zM 177.729 550.967C 177.741 549.938 177.756 548.799 177.752 547.592C 181.471 548.062 185.186 548.468 189.199 548.877C 189.935 548.953 190.641 549.012 191.352 549.074C 191.302 550.556 191.288 551.779 191.295 552.776C 186.729 552.23 182.206 551.628 177.729 550.967zM 328.221 482.386C 324.087 484.058 318.39 481.57 314.856 476.273C 312.618 472.918 311.794 469.217 312.255 466.131C 311.411 469.391 312.182 473.564 314.671 477.295C 317.911 482.152 322.956 484.606 326.961 483.696C 326.82 483.808 326.714 483.953 326.561 484.054C 322.403 486.83 315.88 484.345 311.994 478.52C 308.106 472.69 308.328 465.718 312.488 462.945C 313.318 462.391 314.258 462.102 315.236 461.952C 315.273 461.947 315.31 461.937 315.35 461.933C 315.852 461.862 316.363 461.848 316.889 461.876C 316.978 461.882 317.065 461.887 317.154 461.894C 317.637 461.937 318.122 462.015 318.613 462.137C 318.766 462.174 318.916 462.217 319.068 462.261C 319.507 462.391 319.944 462.539 320.381 462.731C 320.601 462.824 320.816 462.937 321.033 463.046C 321.414 463.237 321.788 463.429 322.162 463.661C 322.445 463.839 322.719 464.048 322.997 464.25C 323.302 464.472 323.608 464.683 323.904 464.933C 324.254 465.229 324.585 465.568 324.917 465.905C 325.131 466.118 325.353 466.312 325.557 466.542C 326.087 467.138 326.594 467.777 327.057 468.473C 327.427 469.027 327.746 469.595 328.04 470.165C 328.134 470.346 328.216 470.528 328.301 470.711C 328.488 471.108 328.659 471.507 328.811 471.904C 328.89 472.111 328.966 472.314 329.033 472.518C 329.173 472.936 329.288 473.349 329.391 473.764C 329.43 473.925 329.481 474.09 329.515 474.251C 329.63 474.801 329.708 475.347 329.753 475.884C 329.769 476.058 329.767 476.226 329.775 476.397C 329.793 476.782 329.797 477.162 329.779 477.536C 329.769 477.721 329.756 477.901 329.738 478.082C 329.699 478.476 329.641 478.857 329.562 479.229C 329.536 479.348 329.519 479.47 329.49 479.587C 329.471 479.658 329.464 479.734 329.444 479.807C 329.451 479.763 329.453 479.72 329.46 479.676C 329.194 480.679 328.79 481.601 328.221 482.386zM 370.434 453.08C 386.116 432.127 383.422 417.666 370.804 419.871C 332.993 426.469 305.78 461.4 294.955 477.217C 289.896 484.61 287.179 491.118 287.249 495.708C 287.028 490.87 289.901 483.884 295.344 475.93C 306.717 459.312 335.307 422.615 375.028 415.686C 388.284 413.367 391.115 428.561 374.639 450.572C 359.101 471.328 334.604 489.957 309.637 499.482C 303.875 501.678 299.315 502.669 295.845 502.68C 299.093 502.595 303.303 501.639 308.559 499.636C 332.326 490.57 355.643 472.837 370.434 453.08zM 357.754 457.859C 354.444 458.888 350.078 456.835 347.334 452.719C 345.641 450.179 344.934 447.39 345.153 444.995C 344.268 447.693 344.829 451.284 346.962 454.481C 349.124 457.723 352.287 459.657 355.153 459.841C 351.826 460.988 347.367 458.946 344.577 454.763C 341.424 450.038 341.604 444.386 344.977 442.138C 345.41 441.849 345.877 441.636 346.364 441.483C 346.797 441.349 347.249 441.273 347.715 441.242C 347.899 441.229 348.091 441.253 348.282 441.255C 348.58 441.262 348.876 441.268 349.181 441.312C 349.394 441.342 349.606 441.399 349.819 441.449C 350.108 441.516 350.397 441.59 350.69 441.69C 350.906 441.764 351.12 441.853 351.337 441.944C 351.629 442.07 351.913 442.208 352.203 442.364C 352.411 442.477 352.618 442.595 352.827 442.725C 353.12 442.91 353.405 443.116 353.69 443.334C 353.879 443.478 354.07 443.614 354.256 443.773C 354.562 444.034 354.853 444.328 355.145 444.626C 355.29 444.778 355.445 444.915 355.589 445.076C 356.01 445.554 356.415 446.065 356.786 446.62C 357.089 447.074 357.354 447.537 357.594 448.005C 357.676 448.166 357.743 448.324 357.817 448.485C 357.961 448.792 358.096 449.099 358.213 449.407C 358.287 449.606 358.354 449.801 358.417 449.999C 358.504 450.267 358.58 450.533 358.647 450.801C 358.702 451.017 358.757 451.232 358.798 451.444C 358.844 451.687 358.874 451.923 358.904 452.16C 358.933 452.389 358.972 452.614 358.987 452.839C 358.998 453.03 358.989 453.215 358.989 453.404C 358.994 453.858 358.968 454.302 358.909 454.733C 358.883 454.917 358.863 455.103 358.826 455.28C 358.783 455.491 358.724 455.69 358.665 455.892C 358.633 456.005 358.613 456.124 358.576 456.233C 358.578 456.209 358.574 456.183 358.576 456.159C 358.369 456.775 358.113 457.358 357.754 457.859zM 489.169 386.286C 489.974 384.461 490.75 382.648 491.5 380.854C 500.576 359.114 505.571 340.281 506.467 336.733C 506.78 336.713 507.094 336.688 507.406 336.659C 506.302 343.321 504.004 353.869 501.366 361.447C 493.377 384.396 505.578 380.474 515.019 369.145C 517.792 365.819 530.837 347.516 536.099 330.829C 535.329 334.435 534.057 338.746 532.126 343.908C 521.121 373.323 491.035 405.209 460.946 433.275C 472.56 419.949 481.974 402.617 489.169 386.286zM 528.86 384.644C 528.558 391.625 527.496 387.833 523.398 389.5C 519.577 391.055 491.909 413.141 488.327 415.777C 484.079 418.901 476.955 424.964 470.582 430.587C 478.614 422.144 495.512 405.933 502.148 399.062C 510.648 390.259 522.68 379.432 525.289 378.84C 528.066 378.209 539.183 338.203 540.396 335.471C 538.421 347.46 529.162 377.662 528.86 384.644zM 553.675 364.279C 552.488 383.973 549.174 399.938 546.275 399.938C 543.375 399.938 541.985 383.973 543.173 364.279C 544.359 344.588 547.674 328.622 550.572 328.622C 553.473 328.622 554.862 344.588 553.675 364.279z"/>
</g>
</svg>